<svg width="48" height="48" viewBox="0 0 48 48" fill="none" xmlns="http://www.w3.org/2000/svg">
<path d="M48 48H0V0H48V48ZM11.2939 16.9414H5.64746V19.7646H8.4707V22.5879H5.64746V25.4121H8.4707V28.2354H11.2939V42.3525H16.9414V39.5293H28.2354V42.3525H33.8828V36.7061H39.5293V39.5293H36.7061V42.3525H42.3525V31.0586H39.5293V28.2354H36.7061V25.4121H31.0586V22.5879H33.8828V19.7646H31.0586V16.9414H28.2354V8.4707H25.4121V11.2939H22.5879V14.1172H16.9414V11.2939H14.1172V8.4707H11.2939V16.9414ZM22.5879 25.4121H16.9414V22.5879H22.5879V25.4121ZM14.1172 22.5879H11.2939V19.7646H14.1172V22.5879ZM25.4121 22.5879H22.5879V19.7646H25.4121V22.5879Z" fill="#32AB7B"/>
</svg>
